<svg width="48" height="42" viewBox="0 0 48 42" fill="none" xmlns="http://www.w3.org/2000/svg">
<g clip-path="url(#clip0_109_50)">
<path d="M33 9H15C13.3431 9 12 10.3431 12 12V30C12 31.6569 13.3431 33 15 33H33C34.6569 33 36 31.6569 36 30V12C36 10.3431 34.6569 9 33 9ZM13.5 14.7857C13.5 14.0756 14.1716 13.5 15 13.5H33C33.8284 13.5 34.5 14.0756 34.5 14.7857V30.2143C34.5 30.9244 33.8284 31.5 33 31.5H15C14.1716 31.5 13.5 30.9244 13.5 30.2143V14.7857Z" fill="#364153"/>
<path d="M21.75 19.5C22.5784 19.5 23.25 18.8284 23.25 18C23.25 17.1716 22.5784 16.5 21.75 16.5C20.9216 16.5 20.25 17.1716 20.25 18C20.25 18.8284 20.9216 19.5 21.75 19.5Z" fill="#364153"/>
<path d="M26.25 19.5C27.0784 19.5 27.75 18.8284 27.75 18C27.75 17.1716 27.0784 16.5 26.25 16.5C25.4216 16.5 24.75 17.1716 24.75 18C24.75 18.8284 25.4216 19.5 26.25 19.5Z" fill="#364153"/>
<path d="M30.75 19.5C31.5784 19.5 32.25 18.8284 32.25 18C32.25 17.1716 31.5784 16.5 30.75 16.5C29.9216 16.5 29.25 17.1716 29.25 18C29.25 18.8284 29.9216 19.5 30.75 19.5Z" fill="#364153"/>
<path d="M17.25 24C18.0784 24 18.75 23.3284 18.75 22.5C18.75 21.6716 18.0784 21 17.25 21C16.4216 21 15.75 21.6716 15.75 22.5C15.75 23.3284 16.4216 24 17.25 24Z" fill="#364153"/>
<path d="M21.75 24C22.5784 24 23.25 23.3284 23.25 22.5C23.25 21.6716 22.5784 21 21.75 21C20.9216 21 20.25 21.6716 20.25 22.5C20.25 23.3284 20.9216 24 21.75 24Z" fill="#364153"/>
<path d="M26.25 24C27.0784 24 27.75 23.3284 27.75 22.5C27.75 21.6716 27.0784 21 26.25 21C25.4216 21 24.75 21.6716 24.75 22.5C24.75 23.3284 25.4216 24 26.25 24Z" fill="#364153"/>
<path d="M30.75 24C31.5784 24 32.25 23.3284 32.25 22.5C32.25 21.6716 31.5784 21 30.75 21C29.9216 21 29.25 21.6716 29.25 22.5C29.25 23.3284 29.9216 24 30.75 24Z" fill="#364153"/>
<path d="M17.25 28.5C18.0784 28.5 18.75 27.8284 18.75 27C18.75 26.1716 18.0784 25.5 17.25 25.5C16.4216 25.5 15.75 26.1716 15.75 27C15.75 27.8284 16.4216 28.5 17.25 28.5Z" fill="#364153"/>
<path d="M21.75 28.5C22.5784 28.5 23.25 27.8284 23.25 27C23.25 26.1716 22.5784 25.5 21.75 25.5C20.9216 25.5 20.25 26.1716 20.25 27C20.25 27.8284 20.9216 28.5 21.75 28.5Z" fill="#364153"/>
<path d="M26.25 28.5C27.0784 28.5 27.75 27.8284 27.75 27C27.75 26.1716 27.0784 25.5 26.25 25.5C25.4216 25.5 24.75 26.1716 24.75 27C24.75 27.8284 25.4216 28.5 26.25 28.5Z" fill="#364153"/>
</g>
<defs>
<clipPath id="clip0_109_50">
<rect x="4" y="1" width="40" height="40" rx="20" fill="white"/>
</clipPath>
</defs>
</svg>
