<svg width="40" height="40" viewBox="0 0 40 40" fill="none" xmlns="http://www.w3.org/2000/svg">
<g clip-path="url(#clip0_109_9)">
<path d="M26.2487 21.4096C25.4626 23.0023 24.3987 24.5902 23.3086 26.0151C22.222 27.4355 21.1316 28.6652 20.3115 29.5407C20.2025 29.657 20.0985 29.767 20 29.8701C19.9015 29.767 19.7975 29.657 19.6885 29.5407C18.8684 28.6652 17.778 27.4355 16.6914 26.0151C15.6013 24.5902 14.5374 23.0023 13.7513 21.4096C12.9572 19.8006 12.5 18.2929 12.5 17C12.5 12.8579 15.8579 9.5 20 9.5C24.1421 9.5 27.5 12.8579 27.5 17C27.5 18.2929 27.0428 19.8006 26.2487 21.4096ZM20 32C20 32 29 23.4706 29 17C29 12.0294 24.9706 8 20 8C15.0294 8 11 12.0294 11 17C11 23.4706 20 32 20 32Z" fill="#364153"/>
<path d="M20 20C18.3431 20 17 18.6569 17 17C17 15.3431 18.3431 14 20 14C21.6569 14 23 15.3431 23 17C23 18.6569 21.6569 20 20 20ZM20 21.5C22.4853 21.5 24.5 19.4853 24.5 17C24.5 14.5147 22.4853 12.5 20 12.5C17.5147 12.5 15.5 14.5147 15.5 17C15.5 19.4853 17.5147 21.5 20 21.5Z" fill="#364153"/>
</g>
<defs>
<clipPath id="clip0_109_9">
<rect width="40" height="40" rx="20" fill="white"/>
</clipPath>
</defs>
</svg>
