<svg width="48" height="42" viewBox="0 0 48 42" fill="none" xmlns="http://www.w3.org/2000/svg">
<g clip-path="url(#clip0_109_34)">
<path d="M29.6132 24.5158C30.7994 22.901 31.5 20.9073 31.5 18.75C31.5 13.3652 27.1348 9 21.75 9C16.3652 9 12 13.3652 12 18.75C12 24.1348 16.3652 28.5 21.75 28.5C23.9079 28.5 25.902 27.799 27.5171 26.6123L27.5158 26.6132C27.5601 26.6732 27.6093 26.7307 27.6636 26.785L33.4393 32.5607C34.0251 33.1465 34.9749 33.1465 35.5607 32.5607C36.1465 31.9749 36.1465 31.0251 35.5607 30.4393L29.785 24.6636C29.7307 24.6093 29.6732 24.5601 29.6132 24.5158ZM30 18.75C30 23.3063 26.3063 27 21.75 27C17.1937 27 13.5 23.3063 13.5 18.75C13.5 14.1937 17.1937 10.5 21.75 10.5C26.3063 10.5 30 14.1937 30 18.75Z" fill="#364153"/>
</g>
<defs>
<clipPath id="clip0_109_34">
<rect x="4" y="1" width="40" height="40" rx="20" fill="white"/>
</clipPath>
</defs>
</svg>
