<svg width="48" height="42" viewBox="0 0 48 42" fill="none" xmlns="http://www.w3.org/2000/svg">
<g clip-path="url(#clip0_109_20)">
<path d="M18.9697 15.9697C19.2626 15.6768 19.7374 15.6768 20.0303 15.9697L24 19.9393L27.9697 15.9697C28.2626 15.6768 28.7374 15.6768 29.0303 15.9697C29.3232 16.2626 29.3232 16.7374 29.0303 17.0303L25.0607 21L29.0303 24.9697C29.3232 25.2626 29.3232 25.7374 29.0303 26.0303C28.7374 26.3232 28.2626 26.3232 27.9697 26.0303L24 22.0607L20.0303 26.0303C19.7374 26.3232 19.2626 26.3232 18.9697 26.0303C18.6768 25.7374 18.6768 25.2626 18.9697 24.9697L22.9393 21L18.9697 17.0303C18.6768 16.7374 18.6768 16.2626 18.9697 15.9697Z" fill="#4A5565"/>
</g>
<defs>
<clipPath id="clip0_109_20">
<rect x="4" y="1" width="40" height="40" rx="20" fill="white"/>
</clipPath>
</defs>
</svg>
